<svg xmlns="http://www.w3.org/2000/svg" viewBox="0 0 64 64" role="img" aria-label="Whitebox">
  <defs>
    <linearGradient id="shell" x1="12" y1="8" x2="52" y2="58" gradientUnits="userSpaceOnUse">
      <stop stop-color="#183657"/>
      <stop offset="1" stop-color="#07111f"/>
    </linearGradient>
    <linearGradient id="glass" x1="18" y1="22" x2="46" y2="52" gradientUnits="userSpaceOnUse">
      <stop stop-color="#e9f5ff" stop-opacity=".96"/>
      <stop offset="1" stop-color="#9cc9f5" stop-opacity=".78"/>
    </linearGradient>
  </defs>
  <rect x="3" y="3" width="58" height="58" rx="16" fill="url(#shell)" stroke="#76ddf4" stroke-width="2"/>
  <path d="M17 17.5 22 12h20l5 5.5v7H17z" fill="url(#glass)" stroke="#f5fbff" stroke-width="2" stroke-linejoin="round"/>
  <path d="M16 24h32v27a5 5 0 0 1-5 5H21a5 5 0 0 1-5-5z" fill="#0b1b30" stroke="#cfe9ff" stroke-width="2"/>
  <circle cx="26" cy="22" r="2" fill="#07111f"/>
  <circle cx="38" cy="22" r="2" fill="#07111f"/>
  <rect x="21" y="30" width="22" height="7" rx="3.5" fill="#173752"/>
  <path d="m24 33.5 2-1.5v3z" fill="#57d7ff"/>
  <rect x="21" y="40" width="22" height="7" rx="3.5" fill="#0f5a50" stroke="#62f0c4" stroke-width="1.5"/>
  <circle cx="25" cy="43.5" r="1.5" fill="#b5ffe9"/>
  <path d="M29 43.5h9" stroke="#b5ffe9" stroke-width="2" stroke-linecap="round"/>
  <circle cx="42" cy="43.5" r="1.5" fill="#62f0c4"/>
  <path d="M24 51h16" stroke="#4d8cff" stroke-width="2.5" stroke-linecap="round"/>
</svg>
